<?xml version="1.0" encoding="utf-8"?>
<!-- Generator: Adobe Illustrator 18.1.1, SVG Export Plug-In . SVG Version: 6.00 Build 0)  -->
<svg version="1.1" id="Layer_1" xmlns="http://www.w3.org/2000/svg" xmlns:xlink="http://www.w3.org/1999/xlink" x="0px" y="0px"
	 viewBox="0 0 154 42" enable-background="new 0 0 154 42" xml:space="preserve">
	<g>
		<g>
			<g>
				<path fill="#CF0247" d="M65.2,22.3h-9.7v0.1c0,1.7,0.6,2.7,2.9,2.7c1.7,0,4.7-0.1,6-0.2h0.1c0.2,0,0.5,0.2,0.5,0.5v2.9
					c0,0.5-0.1,0.6-0.5,0.8c-1.9,0.6-4.1,1-6.9,1c-4.2,0-8.2-2.4-8.2-8.2v-2c0-5.5,3.1-8.4,8.2-8.4c5.5,0,8.1,3.4,8.1,8.4v1.9
					C66,21.9,65.6,22.3,65.2,22.3 M60.2,18.7c0-1.8-0.6-2.9-2.4-2.9c-1.4,0-2.4,1.1-2.4,2.9v0.1L60.2,18.7L60.2,18.7z"/>
			</g>
			<g>
				<path fill="#CF0247" d="M80,29.7H67.5c-0.5,0-0.8-0.4-0.8-0.8v-2.7c0-0.5,0.1-0.8,0.5-1.3l6-8.2c0.1-0.1,0.1-0.2,0.1-0.2
					c0-0.1-0.1-0.2-0.2-0.2h-5.6c-0.2,0-0.5-0.2-0.5-0.5v-3.7c0-0.2,0.2-0.5,0.5-0.5H80c0.5,0,0.6,0.4,0.6,0.8v2.9
					c0,0.6-0.2,1-0.5,1.4l-5.8,7.6c-0.1,0.1-0.1,0.2-0.1,0.2c0,0.1,0.1,0.2,0.2,0.2h5.5c0.2,0,0.5,0.2,0.5,0.5v3.8
					C80.7,29.3,80.5,29.7,80,29.7"/>
			</g>
			<g>
				<path fill="#CF0247" d="M96.4,29.2c-1.6,0.2-4.1,0.6-7.1,0.6c-5.2,0-8.2-2.9-8.2-8.2v-2.5c0-5.3,3-8.2,8.2-8.2
					c2.9,0,5.4,0.4,7.1,0.6c1,0.2,1.1,0.5,1.1,1v15.2C97.6,28.5,97.5,28.8,96.4,29.2 M91.7,16.3c-0.5-0.1-1.2-0.1-2.3-0.1
					c-1.8,0-2.4,1.3-2.4,3.1v2.5c0,1.8,0.5,3.3,2.4,3.3c0.8,0,1.6-0.1,2.3-0.2V16.3z"/>
			</g>
			<g>
				<path fill="#CF0247" d="M115.1,29.7h-4.7c-0.4,0-0.6-0.2-0.6-0.6V18.3c0-1.2-0.1-2-1.6-2h-1.2c-1.4,0-1.6,0.8-1.6,2v10.7
					c0,0.2-0.2,0.6-0.6,0.6H100c-0.4,0-0.6-0.2-0.6-0.6V18.3c0-4.8,2.7-7,7.5-7h1.2c4.8,0,7.5,2,7.5,7v10.7
					C115.8,29.3,115.4,29.7,115.1,29.7"/>
			</g>
			<g>
				<path fill="#CF0247" d="M133.2,29.7h-4.7c-0.4,0-0.6-0.2-0.6-0.6V18.3c0-1.2-0.1-2-1.6-2H125c-1.4,0-1.6,0.8-1.6,2v10.7
					c0,0.2-0.2,0.6-0.6,0.6h-4.6c-0.4,0-0.6-0.2-0.6-0.6V18.3c0-4.8,2.7-7,7.5-7h1.2c4.8,0,7.5,2,7.5,7v10.7
					C133.9,29.3,133.6,29.7,133.2,29.7"/>
			</g>
			<g>
				<path fill="#CF0247" d="M150.8,22.3h-9.7v0.1c0,1.7,0.6,2.7,2.9,2.7c1.7,0,4.7-0.1,6-0.2h0.1c0.2,0,0.5,0.2,0.5,0.5v2.9
					c0,0.5-0.1,0.6-0.5,0.8c-1.9,0.6-4.1,1-6.9,1c-4.2,0-8.2-2.4-8.2-8.2v-2c0-5.5,3.1-8.4,8.2-8.4c5.5,0,8.1,3.4,8.1,8.4v1.9
					C151.3,21.9,151.2,22.3,150.8,22.3 M33.5,19.3c0-6,3.9-8.2,8.2-8.2c2.7,0,4.7,0.2,6.9,1c0.5,0.2,0.5,0.4,0.5,0.8v2.9
					c0,0.4-0.2,0.5-0.5,0.5h-0.1c-1.2-0.1-4.2-0.2-6-0.2c-2.4,0-2.9,1-2.9,2.7v3.4c0,1.7,0.6,2.7,2.9,2.7c1.7,0,4.7-0.1,6-0.2h0.1
					c0.2,0,0.5,0.2,0.5,0.5v3c0,0.5-0.1,0.6-0.5,0.8c-1.9,0.6-4.1,1-6.9,1c-4.2,0-8.2-2.4-8.2-8.2C33.5,21.6,33.5,19.3,33.5,19.3z
					 M145.6,18.7c0-1.8-0.6-2.9-2.4-2.9c-1.4,0-2.4,1.1-2.4,2.9v0.1L145.6,18.7L145.6,18.7z"/>
			</g>
			<g>
				<path fill="#CF0247" d="M24.7,27.3L24.7,27.3l-2-2L20.4,23c-0.6-0.6-1.8-0.6-2.7,0c-1.3,1.3-2.9,2.9-4.2,4.2c-3,3-3,8.1,0,11.2
					l0,0c3,3,8.2,3,11.2,0C27.7,35.4,27.7,30.5,24.7,27.3"/>
			</g>
			<g>
				<path fill="#B8B9B8" d="M12.1,26.3l12.6-12.6c3-3,3-8.2,0-11.2s-8.2-3-11.2,0l-7,7.1c-6,6-6,16,0,22.2l0,0
					c1.1,1.1,2.4,2.4,3.1,3.1C9,31.3,10.4,28,12.1,26.3"/>
			</g>
		</g>
	</g>
</svg>
