<svg xmlns="http://www.w3.org/2000/svg" xmlns:xlink="http://www.w3.org/1999/xlink" width="34" height="33" viewBox="0 0 34 33">
  <defs>
    <clipPath id="clip-email_1">
      <rect width="34" height="33"/>
    </clipPath>
  </defs>
  <g id="email_1" data-name="email – 1" clip-path="url(#clip-email_1)">
    <rect width="34" height="33" fill="#fff"/>
    <g id="download" transform="translate(7 6)">
      <g id="Group_6975" data-name="Group 6975" transform="translate(4.701 0)">
        <g id="Group_6974" data-name="Group 6974">
          <path id="Path_7467" data-name="Path 7467" d="M138.683,9.8a.67.67,0,0,0-.611-.394h-2.686V.672A.672.672,0,0,0,134.714,0h-2.686a.672.672,0,0,0-.672.672V9.4H128.67a.671.671,0,0,0-.505,1.113l4.7,5.373a.67.67,0,0,0,1.01,0l4.7-5.373A.669.669,0,0,0,138.683,9.8Z" transform="translate(-127.998)"/>
        </g>
      </g>
      <g id="Group_6977" data-name="Group 6977" transform="translate(0 14.775)">
        <g id="Group_6976" data-name="Group 6976">
          <path id="Path_7468" data-name="Path 7468" d="M33.461,352v4.029H18.686V352H16v5.372a1.343,1.343,0,0,0,1.343,1.343H34.8a1.342,1.342,0,0,0,1.343-1.343V352Z" transform="translate(-16 -352)"/>
        </g>
      </g>
    </g>
  </g>
</svg>
