<?xml version="1.0" encoding="utf-8"?>
<!-- Generator: Adobe Illustrator 24.3.0, SVG Export Plug-In . SVG Version: 6.00 Build 0)  -->
<svg version="1.1" id="Layer_1" xmlns="http://www.w3.org/2000/svg" xmlns:xlink="http://www.w3.org/1999/xlink" x="0px" y="0px"
	 viewBox="0 0 34 33" style="enable-background:new 0 0 34 33;" xml:space="preserve">
<style type="text/css">
	.st0{fill:none;}
	.st1{fill:#3B86FF;}
</style>
<rect class="st0" width="34" height="33"/>
<g id="email_1">
	<g id="download" transform="translate(7 6)">
		<g id="Group_6975" transform="translate(4.701 0)">
			<g id="Group_6974">
				<path id="Path_7467" class="st1" d="M10.7,9.8c-0.1-0.2-0.3-0.4-0.6-0.4H7.4V0.7C7.4,0.3,7.1,0,6.7,0H4C3.7,0,3.4,0.3,3.4,0.7
					v8.7H0.7C0.3,9.4,0,9.7,0,10.1c0,0.2,0.1,0.3,0.2,0.4l4.7,5.4c0.2,0.3,0.7,0.3,0.9,0.1c0,0,0,0,0.1-0.1l4.7-5.4
					C10.7,10.3,10.8,10,10.7,9.8z"/>
			</g>
		</g>
		<g id="Group_6977" transform="translate(0 14.775)">
			<g id="Group_6976">
				<path id="Path_7468" class="st1" d="M17.5,0v4H2.7V0H0v5.4c0,0.7,0.6,1.3,1.3,1.3h17.5c0.7,0,1.3-0.6,1.3-1.3c0,0,0,0,0,0V0
					H17.5z"/>
			</g>
		</g>
	</g>
</g>
</svg>
