<?xml version="1.0" encoding="utf-8"?>
<!-- Generator: Adobe Illustrator 24.3.0, SVG Export Plug-In . SVG Version: 6.00 Build 0)  -->
<svg version="1.1" id="Layer_1" xmlns="http://www.w3.org/2000/svg" xmlns:xlink="http://www.w3.org/1999/xlink" x="0px" y="0px"
	 viewBox="0 0 34 33" style="enable-background:new 0 0 34 33;" xml:space="preserve">
<style type="text/css">
	.st0{fill:none;}
	.st1{fill-rule:evenodd;clip-rule:evenodd;fill:#3B86FF;}
</style>
<rect class="st0" width="34" height="33"/>
<g id="dribble">
	<path id="dribbble-ball-mark" class="st1" d="M17,2C8.7,2,2,8.7,2,17c0,8.3,6.7,15,15,15c8.3,0,15-6.7,15-15C31.9,8.7,25.2,2,17,2z
		 M26.8,8.9c1.8,2.2,2.9,5,2.9,8c-2.9-0.6-5.9-0.7-8.9-0.4c-0.1-0.2-0.2-0.4-0.3-0.7c-0.3-0.6-0.6-1.2-0.8-1.9
		C22.5,12.9,24.9,11.2,26.8,8.9L26.8,8.9z M17,4.2c3.1,0,6.1,1.1,8.5,3.2c-1.7,2.1-4.1,3.7-6.7,4.6c-1.4-2.6-3-5.1-4.8-7.5
		C14.9,4.3,15.9,4.2,17,4.2L17,4.2z M11.5,5.4c1.7,2.4,3.3,4.8,4.7,7.4c-3.9,1-7.8,1.5-11.8,1.6C5.3,10.4,7.9,7.1,11.5,5.4L11.5,5.4
		z M4.2,17v-0.4c4.4,0,8.9-0.6,13.1-1.8c0.4,0.7,0.7,1.4,1,2.2c-0.2,0-0.3,0.1-0.5,0.1c-4.3,1.6-8,4.5-10.4,8.4
		C5.3,23.2,4.2,20.1,4.2,17z M17,29.7c-2.8,0-5.6-0.9-7.8-2.7c0.2-0.5,2.8-5.5,10-8c0,0,0,0,0.1,0c1.2,3.1,2.1,6.4,2.7,9.7
		C20.4,29.4,18.7,29.7,17,29.7z M24.1,27.6c-0.6-3.1-1.4-6.1-2.5-9.1c2.7-0.4,5.4-0.2,8,0.6C29,22.5,27,25.6,24.1,27.6L24.1,27.6z"
		/>
</g>
</svg>
