<svg xmlns="http://www.w3.org/2000/svg" xmlns:xlink="http://www.w3.org/1999/xlink" width="34" height="33" viewBox="0 0 34 33">
  <defs>
    <clipPath id="clip-dribble">
      <rect width="34" height="33"/>
    </clipPath>
  </defs>
  <g id="dribble" clip-path="url(#clip-dribble)">
    <rect width="34" height="33" fill="#fff"/>
    <path id="dribbble-ball-mark" d="M14.958,0A14.958,14.958,0,1,0,29.917,14.958,14.963,14.963,0,0,0,14.958,0Zm9.88,6.9a12.718,12.718,0,0,1,2.888,7.95,30.168,30.168,0,0,0-8.891-.406c-.1-.211-.178-.438-.276-.665-.26-.616-.552-1.249-.844-1.85A17.1,17.1,0,0,0,24.839,6.9Zm-9.88-4.689a12.748,12.748,0,0,1,8.469,3.212,14.482,14.482,0,0,1-6.7,4.608,68.977,68.977,0,0,0-4.77-7.479A12.993,12.993,0,0,1,14.958,2.206Zm-5.435,1.2a80.624,80.624,0,0,1,4.737,7.382A47.915,47.915,0,0,1,2.45,12.346,12.836,12.836,0,0,1,9.523,3.407ZM2.174,14.975v-.389A46.684,46.684,0,0,0,15.3,12.768c.373.714.714,1.444,1.038,2.174-.162.049-.341.1-.5.146a20.312,20.312,0,0,0-10.383,8.42A12.747,12.747,0,0,1,2.174,14.975ZM14.958,27.743A12.688,12.688,0,0,1,7.122,25.05c.227-.47,2.823-5.467,10.026-7.982.032-.016.049-.016.081-.032a52.816,52.816,0,0,1,2.726,9.686A12.566,12.566,0,0,1,14.958,27.743Zm7.122-2.19a54.97,54.97,0,0,0-2.482-9.1,18.658,18.658,0,0,1,7.95.552A12.667,12.667,0,0,1,22.081,25.553Z" transform="translate(2 2)" fill="#202124" fill-rule="evenodd"/>
  </g>
</svg>
