<svg xmlns="http://www.w3.org/2000/svg" xmlns:xlink="http://www.w3.org/1999/xlink" width="34" height="33" viewBox="0 0 34 33">
  <defs>
    <clipPath id="clip-email">
      <rect width="34" height="33"/>
    </clipPath>
  </defs>
  <g id="email" clip-path="url(#clip-email)">
    <rect width="34" height="33" fill="#fff"/>
    <g id="email-2" data-name="email" transform="translate(3 7)">
      <path id="Path_7455" data-name="Path 7455" d="M-219,395.4v10.067l5.033-5.033Z" transform="translate(223.195 -391.322)" fill="none"/>
      <path id="Path_7456" data-name="Path 7456" d="M-137.967,405.467V395.4L-143,400.433Z" transform="translate(163.134 -391.322)" fill="none"/>
      <path id="Path_7457" data-name="Path 7457" d="M-209,421.9" transform="translate(215.292 -412.264)" fill="#202124"/>
      <path id="Path_7458" data-name="Path 7458" d="M-239,379.9" transform="translate(239 -379.073)" fill="#202124"/>
      <path id="Path_7459" data-name="Path 7459" d="M-203.854,377.622a2.149,2.149,0,0,0-.21-.65,1.829,1.829,0,0,0-.8-.8,2.151,2.151,0,0,0-.65-.21c.482,0-21.686-.021-21.791,0a1.821,1.821,0,0,0-1.678,1.678,1.2,1.2,0,0,0-.021.273v14.953a2.269,2.269,0,0,0,1.971,1.971h21.245a1.973,1.973,0,0,0,1.95-1.741c0-.063.021-.147.021-.21V377.936C-203.833,377.789-203.833,377.706-203.854,377.622Zm-1.95,13.464v.063l-6.061-6.061,6.061-6.061v12.059Zm-1.112-13.171-6.061,6.061-1.112,1.112-.126.126a2.825,2.825,0,0,1-2.2.944,2.759,2.759,0,0,1-2.2-.944l-.126-.126-1.112-1.112-6.061-6.061h19Zm-20.113,1.174v-.063l6.061,6.061-6.061,6.061V379.09Zm.776,13.758h-.273l6.648-6.648.126.126a4.349,4.349,0,0,0,3.314,1.405,4.462,4.462,0,0,0,3.314-1.405l.126-.126,6.648,6.648h-19.9Z" transform="translate(231.098 -375.956)" fill="#202124"/>
    </g>
  </g>
</svg>
