<?xml version="1.0" encoding="utf-8"?>
<!-- Generator: Adobe Illustrator 24.3.0, SVG Export Plug-In . SVG Version: 6.00 Build 0)  -->
<svg version="1.1" id="Layer_1" xmlns="http://www.w3.org/2000/svg" xmlns:xlink="http://www.w3.org/1999/xlink" x="0px" y="0px"
	 viewBox="0 0 34 33" style="enable-background:new 0 0 34 33;" xml:space="preserve">
<style type="text/css">
	.st0{fill:none;}
	.st1{fill:#202124;}
	.st2{fill:#3B86FF;}
</style>
<rect class="st0" width="34" height="33"/>
<g id="email">
	<g id="email-2" transform="translate(3 7)">
		<path id="Path_7456" class="st0" d="M25.2,14.1V4.1l-5,5L25.2,14.1z"/>
		<path id="Path_7457" class="st1" d="M6.3,9.6"/>
		<path id="Path_7458" class="st1" d="M0,0.8"/>
		<path id="Path_7459" class="st2" d="M27.2,1.7c0-0.2-0.1-0.4-0.2-0.6c-0.2-0.3-0.5-0.6-0.8-0.8C26,0.1,25.8,0,25.6,0
			C26.1,0,3.9,0,3.8,0C2.9,0.1,2.2,0.8,2.1,1.7c0,0.1,0,0.2,0,0.3v15c0.1,1,0.9,1.8,2,2h21.2c1,0,1.8-0.8,1.9-1.7c0-0.1,0-0.1,0-0.2
			V2C27.3,1.8,27.3,1.8,27.2,1.7z M25.3,15.1L25.3,15.1l-6.1-6l6.1-6.1V15.1L25.3,15.1z M24.2,2L18.1,8L17,9.1l-0.1,0.1
			c-0.6,0.6-1.4,1-2.2,0.9c-0.8,0-1.6-0.3-2.2-0.9l-0.1-0.1L11.2,8L5.2,2H24.2L24.2,2z M4.1,3.1L4.1,3.1l6.1,6l-6.1,6.1V3.1L4.1,3.1
			z M4.8,16.9H4.6l6.6-6.6l0.1,0.1c0.8,0.9,2.1,1.4,3.3,1.4c1.3,0,2.5-0.5,3.3-1.4l0.1-0.1l6.6,6.6H4.8L4.8,16.9z"/>
	</g>
</g>
</svg>
