<?xml version="1.0" encoding="utf-8"?>
<!-- Generator: Adobe Illustrator 24.3.0, SVG Export Plug-In . SVG Version: 6.00 Build 0)  -->
<svg version="1.1" id="Layer_1" xmlns="http://www.w3.org/2000/svg" xmlns:xlink="http://www.w3.org/1999/xlink" x="0px" y="0px"
	 viewBox="0 0 34 33" style="enable-background:new 0 0 34 33;" xml:space="preserve">
<style type="text/css">
	.st0{fill:none;}
	.st1{fill:#3B86FF;}
</style>
<rect class="st0" width="34" height="33"/>
<g id="Twitter_Logo_Blue" transform="translate(1 -0.092)">
	<rect id="Rectangle_4544" y="0.1" class="st0" width="33" height="33"/>
	<path id="Path_7446" class="st1" d="M12.8,25.1c6.7,0,12.1-5.3,12.2-12c0-0.1,0-0.1,0-0.2c0-0.2,0-0.4,0-0.6
		c0.8-0.6,1.6-1.4,2.1-2.2c-0.8,0.3-1.6,0.6-2.5,0.7c0.9-0.5,1.6-1.4,1.9-2.4c-0.8,0.5-1.8,0.9-2.7,1c-1.6-1.7-4.3-1.8-6-0.2
		c-1.1,1-1.6,2.6-1.2,4.1c-3.4-0.2-6.6-1.8-8.8-4.5c-1.1,2-0.6,4.4,1.3,5.7c-0.7,0-1.3-0.2-1.9-0.5v0.1c0,2,1.4,3.8,3.4,4.2
		c-0.6,0.2-1.3,0.2-1.9,0.1c0.6,1.7,2.2,2.9,4,3c-1.5,1.2-3.4,1.8-5.3,1.8c-0.3,0-0.7,0-1-0.1C8.2,24.5,10.5,25.1,12.8,25.1"/>
</g>
</svg>
